<svg xmlns="http://www.w3.org/2000/svg" xmlns:xlink="http://www.w3.org/1999/xlink" width="54.788" height="52.948" viewBox="0 0 54.788 52.948">
  <defs>
    <filter id="Path_11" x="0" y="0" width="54.788" height="52.948" filterUnits="userSpaceOnUse">
      <feOffset dy="3" input="SourceAlpha"/>
      <feGaussianBlur stdDeviation="3" result="blur"/>
      <feFlood flood-opacity="0.161"/>
      <feComposite operator="in" in2="blur"/>
      <feComposite in="SourceGraphic"/>
    </filter>
  </defs>
  <g id="key-card" transform="translate(9 -6)">
    <g id="Group_66" data-name="Group 66" transform="translate(0 12)">
      <g id="Group_65" data-name="Group 65">
        <g transform="matrix(1, 0, 0, 1, -9, -6)" filter="url(#Path_11)">
          <path id="Path_11-2" data-name="Path 11" d="M9.2,30.394H33.722a3.069,3.069,0,0,0,3.066-3.066V15.066A3.069,3.069,0,0,0,33.722,12H9.2a3.069,3.069,0,0,0-3.066,3.066V21.4A10.113,10.113,0,0,0,6.142,40c0,.068-.01.134-.01.2a6.743,6.743,0,0,0,12.75,3.066H33.722a.614.614,0,0,0,.479-.23l2.453-3.066a.613.613,0,0,0-.111-.874L34.09,37.261a.611.611,0,0,0-.368-.123H32.5a.614.614,0,0,0-.51.273l-.811,1.217-1.311-1.311a.612.612,0,0,0-.433-.179H28.2a.613.613,0,0,0-.613.613v1.226h-1.4l-.473-1.42a.613.613,0,0,0-.582-.419H22.686a.614.614,0,0,0-.51.273l-.716,1.074-.716-1.074a.614.614,0,0,0-.51-.273H18.881A6.74,6.74,0,0,0,6.3,38.718a8.871,8.871,0,0,1-.17-15.954v4.564A3.069,3.069,0,0,0,9.2,30.394Zm-1.839-8.14a8.838,8.838,0,0,1,1.939-.4,2.444,2.444,0,1,0-.026-1.225,10,10,0,0,0-1.913.349V15.066A1.842,1.842,0,0,1,9.2,13.226H33.722a1.842,1.842,0,0,1,1.839,1.839V27.328a1.842,1.842,0,0,1-1.839,1.839H9.2a1.842,1.842,0,0,1-1.839-1.839Zm3.236-1.67a1.226,1.226,0,1,1,0,1.226h1.056V20.584Zm-.477,19.007c-.045,0-.088-.006-.132-.007a1.227,1.227,0,1,1-.007,1.226c.047,0,.093.007.14.007h.92V39.591Zm.92,3.066a2.453,2.453,0,1,0-2.327-3.188,8.823,8.823,0,0,1-1.253-.285A5.515,5.515,0,0,1,17.932,38a.613.613,0,0,0,.562.368h1.412l1.044,1.567a.636.636,0,0,0,1.02,0l1.044-1.567H24.7l.473,1.42a.613.613,0,0,0,.582.419H28.2a.613.613,0,0,0,.613-.613V38.364h.359l1.66,1.66a.613.613,0,0,0,.944-.093l1.044-1.567h.694L35.3,39.7l-1.872,2.342H18.493a.612.612,0,0,0-.562.368A5.513,5.513,0,0,1,7.369,40.428a10.024,10.024,0,0,0,1.265.268A2.456,2.456,0,0,0,11.036,42.656Z" transform="translate(9 -6)" fill="#fff"/>
        </g>
      </g>
    </g>
    <g id="Group_68" data-name="Group 68" transform="translate(26.978 15.679)">
      <g id="Group_67" data-name="Group 67" transform="translate(0 0)">
        <path id="Path_12" data-name="Path 12" d="M357.518,60h-4.9a.613.613,0,0,0-.613.613v9.81a.613.613,0,0,0,.613.613h4.9a.613.613,0,0,0,.613-.613v-9.81A.613.613,0,0,0,357.518,60Zm-.613,9.81h-3.679V61.226h3.679Z" transform="translate(-352 -60)" fill="#fff"/>
      </g>
    </g>
  </g>
</svg>
