<svg xmlns="http://www.w3.org/2000/svg" width="37.788" height="37.789" viewBox="0 0 37.788 37.789">
  <g id="sunset" transform="translate(-0.178 0)">
    <path id="Path_19" data-name="Path 19" d="M329.4,277.453a6.3,6.3,0,1,0,6.3-6.3A6.3,6.3,0,0,0,329.4,277.453Zm6.3-5.038a5.038,5.038,0,1,1-5.038,5.038A5.038,5.038,0,0,1,335.7,272.415Zm0,0" transform="translate(-307.807 -253.519)" fill="#fff"/>
    <path id="Path_20" data-name="Path 20" d="M370.9,561.637h7.2V562.9h-7.2Zm0,0" transform="translate(-346.607 -525.107)" fill="#fff"/>
    <path id="Path_21" data-name="Path 21" d="M329.4,522.9h12.6v1.26H329.4Zm0,0" transform="translate(-307.807 -488.891)" fill="#fff"/>
    <path id="Path_22" data-name="Path 22" d="M116.379,522.9h1.26v1.26h-1.26Zm0,0" transform="translate(-108.643 -488.891)" fill="#fff"/>
    <path id="Path_23" data-name="Path 23" d="M58.285,542.27h1.259v1.26H58.285Zm0,0" transform="translate(-54.328 -507)" fill="#fff"/>
    <path id="Path_24" data-name="Path 24" d="M7.8,30.467a47.7,47.7,0,0,0,6.059-18.641l5.857,5.822a.629.629,0,0,0,.441.183.6.6,0,0,0,.1-.008.629.629,0,0,0,.462-.34,6.148,6.148,0,0,0-1.154-7.106l-.515-.515h4.43a.63.63,0,0,0,.6-.829,6.149,6.149,0,0,0-5.841-4.209h-.819L20.564,1.66A.63.63,0,0,0,20.4.652a6.15,6.15,0,0,0-7.11,1.153l-.6.6a6.16,6.16,0,0,0-.546.63,6.051,6.051,0,0,0-.541-.63l-.6-.6A6.147,6.147,0,0,0,3.895.652.63.63,0,0,0,3.73,1.66L6.878,4.823H6.052A6.149,6.149,0,0,0,.211,9.032a.63.63,0,0,0,.6.829H5.234l-.515.515a6.149,6.149,0,0,0-1.154,7.106.63.63,0,0,0,.462.34.6.6,0,0,0,.1.008.629.629,0,0,0,.444-.183l5.454-5.422A34.135,34.135,0,0,1,3.442,28.87a23.5,23.5,0,0,0-2.571-.524l-.394-.04L.352,29.56l.367.036c.63.09,1.256.217,1.878.362-.126.158-.252.319-.382.474l.966.808a35.457,35.457,0,0,0,8.239-20.4l.725-.72.543.54A46.047,46.047,0,0,1,4.7,33.017l1.032.722c.5-.707.968-1.44,1.425-2.188a22.338,22.338,0,0,1,7.62,5.97l.974-.8a23.524,23.524,0,0,0-4.182-3.972h26.4v-1.26H9.7c-.617-.373-1.255-.71-1.905-1.025ZM19.925,16.079,13.271,9.463a4.858,4.858,0,0,1,4.808,1.2l.6.6a4.89,4.89,0,0,1,1.245,4.811ZM22.52,8.6H17.305a6.142,6.142,0,0,0-3.9-.465,4.884,4.884,0,0,1,3.981-2.054h.85A4.89,4.89,0,0,1,22.52,8.6ZM13.577,3.3l.6-.6a4.893,4.893,0,0,1,4.814-1.245L15.259,5.206A6.143,6.143,0,0,0,12.286,7.54,4.767,4.767,0,0,1,13.579,3.3Zm-3.469-.6.6.6a4.78,4.78,0,0,1,.724.954,5.992,5.992,0,0,0-.481,2.094A6.143,6.143,0,0,0,9.031,5.206L5.3,1.451A4.891,4.891,0,0,1,10.109,2.7ZM6.05,6.083H6.9a4.885,4.885,0,0,1,3.985,2.053,6.145,6.145,0,0,0-3.9.466H1.77A4.89,4.89,0,0,1,6.052,6.083Zm-1.685,10A4.89,4.89,0,0,1,5.61,11.267l.6-.6A4.814,4.814,0,0,1,9.626,9.26a4.981,4.981,0,0,1,1.4.2Zm0,0" transform="translate(0 0)" fill="#fff"/>
  </g>
</svg>
