<svg xmlns="http://www.w3.org/2000/svg" width="22" height="16" viewBox="0 0 22 16"><g><g><path fill="#122650" d="M10.896 5.042c-1.693 0-2.988 1.294-2.988 2.988 0 1.693 1.295 2.988 2.988 2.988s2.988-1.295 2.988-2.988c0-1.694-1.295-2.988-2.988-2.988zm0 7.968c-2.789 0-4.98-2.191-4.98-4.98 0-2.79 2.191-4.98 4.98-4.98 2.789 0 4.98 2.19 4.98 4.98 0 2.789-2.191 4.98-4.98 4.98zm0-12.45C5.916.56 1.633 3.646-.06 8.03c1.694 4.382 5.977 7.47 10.957 7.47s9.263-3.088 10.957-7.47C20.159 3.647 15.876.56 10.896.56z"/></g></g></svg>