<svg xmlns="http://www.w3.org/2000/svg" width="32" height="31" viewBox="0 0 32 31"><defs><mask id="sqvob" width="2" height="2" x="-1" y="-1"><path fill="#fff" d="M3-1h26v26H3z"/><path d="M22.8 12.349L16.59 18.56c-.855.855-1.995 1.311-3.249 1.311-1.253 0-2.336-.456-3.248-1.31-.855-.855-1.31-1.995-1.31-3.249s.455-2.336 1.31-3.248l6.896-6.896a.517.517 0 0 1 .398-.17c.171 0 .285.056.4.17l.797.798a.55.55 0 0 1 0 .798l-6.895 6.895a2.25 2.25 0 0 0-.684 1.596c0 .57.228 1.197.684 1.596.855.855 2.336.855 3.248 0l6.212-6.212a.517.517 0 0 0 .17-.399c0-.342-.227-.57-.57-.57-.227 0-.341.114-.398.171l-5.243 5.243a.616.616 0 0 1-.399.171.616.616 0 0 1-.399-.17l-.798-.799a.55.55 0 0 1 0-.797l5.243-5.243c.513-.513 1.254-.855 1.995-.855a2.822 2.822 0 0 1 2.85 2.85c.056.854-.229 1.538-.799 2.108zM16.247-.074A12.501 12.501 0 0 0 3.709 12.463 12.501 12.501 0 0 0 16.247 25a12.501 12.501 0 0 0 12.537-12.537A12.501 12.501 0 0 0 16.247-.074z"/></mask><filter id="sqvoa" width="54" height="57" x="-11" y="-15" filterUnits="userSpaceOnUse"><feOffset dy="3" in="SourceGraphic" result="FeOffset1041Out"/><feGaussianBlur in="FeOffset1041Out" result="FeGaussianBlur1042Out" stdDeviation="1.6 1.6"/></filter></defs><g><g><g filter="url(#sqvoa)"><path fill="none" d="M22.8 12.349L16.59 18.56c-.855.855-1.995 1.311-3.249 1.311-1.253 0-2.336-.456-3.248-1.31-.855-.855-1.31-1.995-1.31-3.249s.455-2.336 1.31-3.248l6.896-6.896a.517.517 0 0 1 .398-.17c.171 0 .285.056.4.17l.797.798a.55.55 0 0 1 0 .798l-6.895 6.895a2.25 2.25 0 0 0-.684 1.596c0 .57.228 1.197.684 1.596.855.855 2.336.855 3.248 0l6.212-6.212a.517.517 0 0 0 .17-.399c0-.342-.227-.57-.57-.57-.227 0-.341.114-.398.171l-5.243 5.243a.616.616 0 0 1-.399.171.616.616 0 0 1-.399-.17l-.798-.799a.55.55 0 0 1 0-.797l5.243-5.243c.513-.513 1.254-.855 1.995-.855a2.822 2.822 0 0 1 2.85 2.85c.056.854-.229 1.538-.799 2.108zM16.247-.074A12.501 12.501 0 0 0 3.709 12.463 12.501 12.501 0 0 0 16.247 25a12.501 12.501 0 0 0 12.537-12.537A12.501 12.501 0 0 0 16.247-.074z" mask="url(&quot;#sqvob&quot;)"/><path fill-opacity=".24" d="M22.8 12.349L16.59 18.56c-.855.855-1.995 1.311-3.249 1.311-1.253 0-2.336-.456-3.248-1.31-.855-.855-1.31-1.995-1.31-3.249s.455-2.336 1.31-3.248l6.896-6.896a.517.517 0 0 1 .398-.17c.171 0 .285.056.4.17l.797.798a.55.55 0 0 1 0 .798l-6.895 6.895a2.25 2.25 0 0 0-.684 1.596c0 .57.228 1.197.684 1.596.855.855 2.336.855 3.248 0l6.212-6.212a.517.517 0 0 0 .17-.399c0-.342-.227-.57-.57-.57-.227 0-.341.114-.398.171l-5.243 5.243a.616.616 0 0 1-.399.171.616.616 0 0 1-.399-.17l-.798-.799a.55.55 0 0 1 0-.797l5.243-5.243c.513-.513 1.254-.855 1.995-.855a2.822 2.822 0 0 1 2.85 2.85c.056.854-.229 1.538-.799 2.108zM16.247-.074A12.501 12.501 0 0 0 3.709 12.463 12.501 12.501 0 0 0 16.247 25a12.501 12.501 0 0 0 12.537-12.537A12.501 12.501 0 0 0 16.247-.074z"/></g><path fill="#fff" d="M22.8 12.349L16.59 18.56c-.855.855-1.995 1.311-3.249 1.311-1.253 0-2.336-.456-3.248-1.31-.855-.855-1.31-1.995-1.31-3.249s.455-2.336 1.31-3.248l6.896-6.896a.517.517 0 0 1 .398-.17c.171 0 .285.056.4.17l.797.798a.55.55 0 0 1 0 .798l-6.895 6.895a2.25 2.25 0 0 0-.684 1.596c0 .57.228 1.197.684 1.596.855.855 2.336.855 3.248 0l6.212-6.212a.517.517 0 0 0 .17-.399c0-.342-.227-.57-.57-.57-.227 0-.341.114-.398.171l-5.243 5.243a.616.616 0 0 1-.399.171.616.616 0 0 1-.399-.17l-.798-.799a.55.55 0 0 1 0-.797l5.243-5.243c.513-.513 1.254-.855 1.995-.855a2.822 2.822 0 0 1 2.85 2.85c.056.854-.229 1.538-.799 2.108zM16.247-.074A12.501 12.501 0 0 0 3.709 12.463 12.501 12.501 0 0 0 16.247 25a12.501 12.501 0 0 0 12.537-12.537A12.501 12.501 0 0 0 16.247-.074z"/></g></g></svg>