<svg xmlns="http://www.w3.org/2000/svg" width="90" height="89" viewBox="0 0 90 89"><defs><mask id="mtveb" width="2" height="2" x="-1" y="-1"><path fill="#fff" d="M5 1h80v81H5z"/><path d="M76.964 41.554c0-17.632-14.353-31.986-31.985-31.986-17.633 0-31.986 14.354-31.986 31.986S27.346 73.54 44.979 73.54c17.632 0 31.985-14.354 31.985-31.986zm7.997 0c0 22.09-17.892 39.982-39.982 39.982S4.996 63.644 4.996 41.554 22.888 1.572 44.98 1.572c22.09 0 39.982 17.892 39.982 39.982zM36.982 23.562l23.99 17.992-23.99 17.992z"/></mask><filter id="mtvea" width="112" height="116" x="-11" y="-15" filterUnits="userSpaceOnUse"><feOffset dy="3" in="SourceGraphic" result="FeOffset1051Out"/><feGaussianBlur in="FeOffset1051Out" result="FeGaussianBlur1052Out" stdDeviation="2.4 2.4"/></filter></defs><g><g><g filter="url(#mtvea)"><path fill="none" d="M76.964 41.554c0-17.632-14.353-31.986-31.985-31.986-17.633 0-31.986 14.354-31.986 31.986S27.346 73.54 44.979 73.54c17.632 0 31.985-14.354 31.985-31.986zm7.997 0c0 22.09-17.892 39.982-39.982 39.982S4.996 63.644 4.996 41.554 22.888 1.572 44.98 1.572c22.09 0 39.982 17.892 39.982 39.982zM36.982 23.562l23.99 17.992-23.99 17.992z" mask="url(&quot;#mtveb&quot;)"/><path fill-opacity=".16" d="M76.964 41.554c0-17.632-14.353-31.986-31.985-31.986-17.633 0-31.986 14.354-31.986 31.986S27.346 73.54 44.979 73.54c17.632 0 31.985-14.354 31.985-31.986zm7.997 0c0 22.09-17.892 39.982-39.982 39.982S4.996 63.644 4.996 41.554 22.888 1.572 44.98 1.572c22.09 0 39.982 17.892 39.982 39.982zM36.982 23.562l23.99 17.992-23.99 17.992z"/></g><path fill="#fff" d="M76.964 41.554c0-17.632-14.353-31.986-31.985-31.986-17.633 0-31.986 14.354-31.986 31.986S27.346 73.54 44.979 73.54c17.632 0 31.985-14.354 31.985-31.986zm7.997 0c0 22.09-17.892 39.982-39.982 39.982S4.996 63.644 4.996 41.554 22.888 1.572 44.98 1.572c22.09 0 39.982 17.892 39.982 39.982zM36.982 23.562l23.99 17.992-23.99 17.992z"/></g></g></svg>