<svg id="racing" xmlns="http://www.w3.org/2000/svg" width="40.312" height="40.311" viewBox="0 0 40.312 40.311">
  <g id="Group_70" data-name="Group 70" transform="translate(28.608 21.456)">
    <g id="Group_69" data-name="Group 69">
      <path id="Path_15" data-name="Path 15" d="M353.951,264a1.951,1.951,0,1,0,1.951,1.951A1.953,1.953,0,0,0,353.951,264Zm0,2.6a.65.65,0,1,1,.65-.65A.651.651,0,0,1,353.951,266.6Z" transform="translate(-352 -264)" fill="#727272"/>
    </g>
  </g>
  <g id="Group_72" data-name="Group 72" transform="translate(7.802 21.456)">
    <g id="Group_71" data-name="Group 71">
      <path id="Path_16" data-name="Path 16" d="M97.951,264a1.951,1.951,0,1,0,1.951,1.951A1.953,1.953,0,0,0,97.951,264Zm0,2.6a.65.65,0,1,1,.65-.65A.651.651,0,0,1,97.951,266.6Z" transform="translate(-96 -264)" fill="#727272"/>
    </g>
  </g>
  <g id="Group_74" data-name="Group 74" transform="translate(0 12.354)">
    <g id="Group_73" data-name="Group 73">
      <path id="Path_17" data-name="Path 17" d="M34.665,165h5.647v-4.921a3.232,3.232,0,0,0-2.756-3.213l-1.6-.247,1.379-1.372h2.332v-1.3h-2.87l-2.135,2.135-.293.285a14.76,14.76,0,0,1-5.612-2.239,12.688,12.688,0,0,0-13.853-.148l-1.068.679a12.06,12.06,0,0,1-6.483,1.887A7.348,7.348,0,0,0,0,163.9V165H5.647a4.573,4.573,0,0,0,1.774,1.951H2.6v1.3h35.11v-1.3h-4.82A4.573,4.573,0,0,0,34.665,165ZM5.253,163.7H1.3a6.047,6.047,0,0,1,6.044-5.852,13.352,13.352,0,0,0,7.18-2.091l1.068-.679a11.392,11.392,0,0,1,12.434.132,16.071,16.071,0,0,0,6.428,2.5l2.9.447a1.937,1.937,0,0,1,1.415,1H37.711v1.3h1.3v.65h-1.3v1.3h1.3v1.3H35.058a4.551,4.551,0,1,0-9,0H14.252a4.551,4.551,0,1,0-9,0Zm4.5,2.6A3.251,3.251,0,1,1,13,163.053,3.255,3.255,0,0,1,9.753,166.3Zm2.332.65A4.573,4.573,0,0,0,13.859,165H26.453a4.573,4.573,0,0,0,1.774,1.951Zm18.474-.65a3.251,3.251,0,1,1,3.251-3.251A3.255,3.255,0,0,1,30.559,166.3Z" transform="translate(0 -152)" fill="#727272"/>
    </g>
  </g>
  <g id="Group_76" data-name="Group 76" transform="translate(14.097 14.954)">
    <g id="Group_75" data-name="Group 75">
      <path id="Path_18" data-name="Path 18" d="M187.027,186.06A11.458,11.458,0,0,0,181.07,184a10.076,10.076,0,0,0-5.417,1.577l-1.068.68c-.108.068-.217.152-.325.236a2.364,2.364,0,0,1-.269.192l-.535.3,1.105,2.211h11.153l1.854-2.781Zm-2.009,1.841h-9.653l-.223-.447c.047-.036.094-.07.141-.1l1.068-.68a8.775,8.775,0,0,1,4.72-1.374,9.971,9.971,0,0,1,4.685,1.5Z" transform="translate(-173.456 -184)" fill="#727272"/>
    </g>
  </g>
  <g id="Group_78" data-name="Group 78" transform="translate(13.654 5.201)">
    <g id="Group_77" data-name="Group 77">
      <rect id="Rectangle_45" data-name="Rectangle 45" width="13.004" height="1.3" fill="#727272"/>
    </g>
  </g>
  <g id="Group_80" data-name="Group 80" transform="translate(20.156 2.601)">
    <g id="Group_79" data-name="Group 79">
      <rect id="Rectangle_46" data-name="Rectangle 46" width="13.004" height="1.3" fill="#727272"/>
    </g>
  </g>
  <g id="Group_82" data-name="Group 82" transform="translate(26.658)">
    <g id="Group_81" data-name="Group 81">
      <rect id="Rectangle_47" data-name="Rectangle 47" width="13.004" height="1.3" fill="#727272"/>
    </g>
  </g>
  <g id="Group_84" data-name="Group 84" transform="translate(7.152 39.011)">
    <g id="Group_83" data-name="Group 83">
      <rect id="Rectangle_48" data-name="Rectangle 48" width="13.004" height="1.3" fill="#727272"/>
    </g>
  </g>
  <g id="Group_86" data-name="Group 86" transform="translate(13.654 36.41)">
    <g id="Group_85" data-name="Group 85">
      <rect id="Rectangle_49" data-name="Rectangle 49" width="13.004" height="1.3" fill="#727272"/>
    </g>
  </g>
  <g id="Group_88" data-name="Group 88" transform="translate(20.156 33.81)">
    <g id="Group_87" data-name="Group 87">
      <rect id="Rectangle_50" data-name="Rectangle 50" width="13.004" height="1.3" fill="#727272"/>
    </g>
  </g>
  <g id="Group_90" data-name="Group 90" transform="translate(39.011 27.308)">
    <g id="Group_89" data-name="Group 89">
      <rect id="Rectangle_51" data-name="Rectangle 51" width="1.3" height="1.3" fill="#727272"/>
    </g>
  </g>
  <g id="Group_92" data-name="Group 92" transform="translate(0 27.308)">
    <g id="Group_91" data-name="Group 91">
      <rect id="Rectangle_52" data-name="Rectangle 52" width="1.3" height="1.3" fill="#727272"/>
    </g>
  </g>
</svg>
