<svg xmlns="http://www.w3.org/2000/svg" width="37.312" height="34.722" viewBox="0 0 37.312 34.722">
  <g id="theater-masks" transform="translate(0.001 0)">
    <path id="Path_25" data-name="Path 25" d="M329.729,181.457a.729.729,0,1,0-.729-.729A.729.729,0,0,0,329.729,181.457Zm0,0" transform="translate(-305.025 -166.882)" fill="#727272"/>
    <path id="Path_26" data-name="Path 26" d="M63.729,41.457A.729.729,0,1,0,63,40.729.729.729,0,0,0,63.729,41.457Zm0,0" transform="translate(-58.41 -37.085)" fill="#727272"/>
    <path id="Path_27" data-name="Path 27" d="M8.609,23.753l1.1.474a3.663,3.663,0,0,0,2.871,0l1.1-.473a14.428,14.428,0,0,0,1.443-.718,14.114,14.114,0,0,0,8.49,10.92l1.1.474a3.664,3.664,0,0,0,2.871,0l1.1-.473a14.042,14.042,0,0,0,8.61-12.726v-8.84A2.189,2.189,0,0,0,35.124,10.2H22.3V2.187A2.189,2.189,0,0,0,20.112,0H2.185A2.189,2.189,0,0,0,0,2.187v8.84a14.042,14.042,0,0,0,8.61,12.726ZM35.853,12.389v8.84a12.651,12.651,0,0,1-7.727,11.387l-1.1.474a2.2,2.2,0,0,1-1.723,0l-1.1-.474A12.6,12.6,0,0,1,16.5,22.15a14.462,14.462,0,0,0,2.73-2.594,3.642,3.642,0,0,0,4.747-.062.729.729,0,1,0-.964-1.093,2.187,2.187,0,0,1-2.892,0c-.011-.01-.022-.018-.033-.026a13.519,13.519,0,0,0,2.191-6.715H35.124a.729.729,0,0,1,.729.729Zm-34.4-10.2a.729.729,0,0,1,.729-.729H20.112a.729.729,0,0,1,.729.729v8.84a12.568,12.568,0,0,1-7.727,11.387l-1.1.474a2.2,2.2,0,0,1-1.723,0l-1.1-.474A12.652,12.652,0,0,1,1.457,11.027Zm0,0" fill="#727272"/>
    <path id="Path_28" data-name="Path 28" d="M92.474,180H83.729a.729.729,0,0,0-.729.729,5.1,5.1,0,0,0,10.2,0A.729.729,0,0,0,92.474,180ZM88.1,184.372a3.651,3.651,0,0,1-3.571-2.916h7.141A3.651,3.651,0,0,1,88.1,184.372Zm0,0" transform="translate(-76.952 -166.882)" fill="#727272"/>
    <path id="Path_29" data-name="Path 29" d="M59.2,101.457a2.184,2.184,0,0,1,1.446.547.729.729,0,1,0,.964-1.093,3.644,3.644,0,0,0-4.821,0A.729.729,0,0,0,57.753,102a2.184,2.184,0,0,1,1.446-.547Zm0,0" transform="translate(-52.423 -92.712)" fill="#727272"/>
    <path id="Path_30" data-name="Path 30" d="M176.786,100.911a.729.729,0,1,0,.964,1.093,2.187,2.187,0,0,1,2.892,0,.729.729,0,1,0,.964-1.093,3.645,3.645,0,0,0-4.821,0Zm0,0" transform="translate(-163.675 -92.712)" fill="#727272"/>
    <path id="Path_31" data-name="Path 31" d="M103.729,41.457h8.745a.729.729,0,0,0,0-1.457h-8.745a.729.729,0,0,0,0,1.457Zm0,0" transform="translate(-95.495 -37.085)" fill="#727272"/>
    <path id="Path_32" data-name="Path 32" d="M289,325.1a.729.729,0,0,0,.729.729h8.745a.729.729,0,0,0,.729-.729,5.1,5.1,0,1,0-10.2,0Zm5.1-3.644a3.65,3.65,0,0,1,3.571,2.915h-7.141A3.65,3.65,0,0,1,294.1,321.457Zm0,0" transform="translate(-267.94 -296.68)" fill="#727272"/>
    <path id="Path_33" data-name="Path 33" d="M386.643,250.182a2.186,2.186,0,0,1-2.892,0,.729.729,0,1,0-.964,1.093,3.643,3.643,0,0,0,4.82,0,.729.729,0,1,0-.964-1.093Zm0,0" transform="translate(-354.663 -231.781)" fill="#727272"/>
    <path id="Path_34" data-name="Path 34" d="M369.729,181.457H374.1a.729.729,0,1,0,0-1.457h-4.372a.729.729,0,0,0,0,1.457Zm0,0" transform="translate(-342.11 -166.882)" fill="#727272"/>
  </g>
</svg>
