<svg xmlns="http://www.w3.org/2000/svg" width="38" height="38" viewBox="0 0 38 38"><g><g><path fill="#727272" d="M4.186 16.079a4.89 4.89 0 0 1 1.245-4.812l.602-.601A4.814 4.814 0 0 1 9.447 9.26c.473 0 .943.068 1.396.2zM9.931 2.696a4.891 4.891 0 0 0-4.812-1.245l3.734 3.755c.704.26 1.355.645 1.92 1.139.034-.721.197-1.43.482-2.094a4.78 4.78 0 0 0-.724-.954l-.602-.6zm3.47.601a4.767 4.767 0 0 0-1.293 4.243 6.143 6.143 0 0 1 2.973-2.334l3.733-3.755A4.893 4.893 0 0 0 14 2.696l-.601.601zm6.346 12.782a4.89 4.89 0 0 0-1.245-4.812l-.602-.601a4.858 4.858 0 0 0-4.807-1.203zM7.62 30.467c.65.314 1.288.652 1.905 1.025h28.262v1.26H11.392a23.524 23.524 0 0 1 4.182 3.971l-.974.798a22.337 22.337 0 0 0-7.62-5.97c-.458.747-.93 1.48-1.425 2.188l-1.032-.722A46.046 46.046 0 0 0 12.51 10.66l-.542-.54-.725.72a35.457 35.457 0 0 1-8.24 20.4l-.965-.808c.13-.156.256-.317.382-.475a22.477 22.477 0 0 0-1.878-.361l-.367-.036.126-1.254.393.04a23.5 23.5 0 0 1 2.571.524A34.135 34.135 0 0 0 9.85 12.226l-5.455 5.422a.629.629 0 0 1-1.007-.165 6.149 6.149 0 0 1 1.154-7.106l.515-.515H.63a.63.63 0 0 1-.598-.83 6.149 6.149 0 0 1 5.841-4.209H6.7L3.551 1.66A.628.628 0 0 1 3.716.652a6.147 6.147 0 0 1 7.105 1.154l.602.601c.194.197.375.408.541.63a6.16 6.16 0 0 1 .546-.63l.601-.601a6.15 6.15 0 0 1 7.11-1.154.628.628 0 0 1 .165 1.008l-3.145 3.163h.818a6.149 6.149 0 0 1 5.841 4.21.63.63 0 0 1-.598.83h-4.43l.516.514a6.148 6.148 0 0 1 1.153 7.106.629.629 0 0 1-1.004.165l-5.857-5.823a47.698 47.698 0 0 1-6.06 18.642z"/></g></g></svg>