<svg xmlns="http://www.w3.org/2000/svg" width="47" height="45" viewBox="0 0 47 45"><defs><mask id="dbflb" width="2" height="2" x="-1" y="-1"><path fill="#fff" d="M5 2h37v35H5z"/><path d="M16.036 32.656c1.353 0 2.453-1.1 2.453-2.452 0-1.353-1.1-2.453-2.453-2.453a2.448 2.448 0 0 0-2.327 1.717 8.824 8.824 0 0 1-1.253-.285 5.524 5.524 0 0 1 5.42-4.497 5.52 5.52 0 0 1 5.056 3.31.613.613 0 0 0 .561.368h1.412l1.044 1.567c.228.341.793.341 1.02 0l1.045-1.567h1.682l.473 1.42c.084.251.318.42.582.42h2.453c.339 0 .613-.274.613-.613v-1.227h.36l1.659 1.66a.614.614 0 0 0 .944-.093l1.044-1.567h.694l1.782 1.338-1.872 2.341H23.493a.612.612 0 0 0-.561.368 5.52 5.52 0 0 1-5.056 3.311c-2.968 0-5.388-2.356-5.507-5.294.411.116.833.204 1.264.268a2.456 2.456 0 0 0 2.403 1.96zm-.92-3.065c-.044 0-.087-.006-.132-.007a1.223 1.223 0 0 1 1.052-.606 1.227 1.227 0 0 1 0 2.452c-.454 0-.848-.251-1.06-.62.048 0 .093.007.14.007h.92v-1.226zm.478-19.007a1.222 1.222 0 0 1 2.282.613 1.222 1.222 0 1 1-2.282.613h1.055v-1.226zm-3.236 1.67a8.837 8.837 0 0 1 1.939-.402 2.448 2.448 0 0 0 2.352 1.797c1.353 0 2.453-1.1 2.453-2.452 0-1.353-1.1-2.453-2.453-2.453-1.155 0-2.12.805-2.379 1.883-.657.054-1.296.174-1.912.35V5.065c0-1.014.825-1.84 1.839-1.84h24.525c1.014 0 1.84.826 1.84 1.84v12.262c0 1.014-.826 1.84-1.84 1.84H14.197a1.842 1.842 0 0 1-1.84-1.84zm1.839 8.14h24.525a3.07 3.07 0 0 0 3.066-3.066V5.066A3.07 3.07 0 0 0 38.722 2H14.197a3.07 3.07 0 0 0-3.066 3.066v6.339C7.53 12.955 5 16.537 5 20.7c0 4.168 2.534 7.753 6.142 9.3-.003.069-.01.135-.01.204a6.752 6.752 0 0 0 6.744 6.744 6.745 6.745 0 0 0 6.005-3.679h14.841a.614.614 0 0 0 .479-.23l2.452-3.065a.614.614 0 0 0-.11-.874l-2.453-1.84a.611.611 0 0 0-.368-.122h-1.226a.614.614 0 0 0-.51.273l-.812 1.217-1.31-1.31a.612.612 0 0 0-.434-.18h-1.226a.613.613 0 0 0-.613.613v1.227h-1.398l-.473-1.42a.613.613 0 0 0-.582-.42h-2.452a.614.614 0 0 0-.51.273l-.717 1.074-.716-1.074a.614.614 0 0 0-.51-.273h-1.352a6.744 6.744 0 0 0-6.005-3.679c-3.208 0-5.896 2.254-6.574 5.26-2.996-1.432-5.076-4.483-5.076-8.019 0-3.468 2.002-6.47 4.905-7.935v4.563a3.07 3.07 0 0 0 3.066 3.066z"/></mask><filter id="dbfla" width="69" height="70" x="-11" y="-14" filterUnits="userSpaceOnUse"><feOffset dy="3" in="SourceGraphic" result="FeOffset1121Out"/><feGaussianBlur in="FeOffset1121Out" result="FeGaussianBlur1122Out" stdDeviation="2.4 2.4"/></filter></defs><g><g><g filter="url(#dbfla)"><path fill="none" d="M16.036 32.656c1.353 0 2.453-1.1 2.453-2.452 0-1.353-1.1-2.453-2.453-2.453a2.448 2.448 0 0 0-2.327 1.717 8.824 8.824 0 0 1-1.253-.285 5.524 5.524 0 0 1 5.42-4.497 5.52 5.52 0 0 1 5.056 3.31.613.613 0 0 0 .561.368h1.412l1.044 1.567c.228.341.793.341 1.02 0l1.045-1.567h1.682l.473 1.42c.084.251.318.42.582.42h2.453c.339 0 .613-.274.613-.613v-1.227h.36l1.659 1.66a.614.614 0 0 0 .944-.093l1.044-1.567h.694l1.782 1.338-1.872 2.341H23.493a.612.612 0 0 0-.561.368 5.52 5.52 0 0 1-5.056 3.311c-2.968 0-5.388-2.356-5.507-5.294.411.116.833.204 1.264.268a2.456 2.456 0 0 0 2.403 1.96zm-.92-3.065c-.044 0-.087-.006-.132-.007a1.223 1.223 0 0 1 1.052-.606 1.227 1.227 0 0 1 0 2.452c-.454 0-.848-.251-1.06-.62.048 0 .093.007.14.007h.92v-1.226zm.478-19.007a1.222 1.222 0 0 1 2.282.613 1.222 1.222 0 1 1-2.282.613h1.055v-1.226zm-3.236 1.67a8.837 8.837 0 0 1 1.939-.402 2.448 2.448 0 0 0 2.352 1.797c1.353 0 2.453-1.1 2.453-2.452 0-1.353-1.1-2.453-2.453-2.453-1.155 0-2.12.805-2.379 1.883-.657.054-1.296.174-1.912.35V5.065c0-1.014.825-1.84 1.839-1.84h24.525c1.014 0 1.84.826 1.84 1.84v12.262c0 1.014-.826 1.84-1.84 1.84H14.197a1.842 1.842 0 0 1-1.84-1.84zm1.839 8.14h24.525a3.07 3.07 0 0 0 3.066-3.066V5.066A3.07 3.07 0 0 0 38.722 2H14.197a3.07 3.07 0 0 0-3.066 3.066v6.339C7.53 12.955 5 16.537 5 20.7c0 4.168 2.534 7.753 6.142 9.3-.003.069-.01.135-.01.204a6.752 6.752 0 0 0 6.744 6.744 6.745 6.745 0 0 0 6.005-3.679h14.841a.614.614 0 0 0 .479-.23l2.452-3.065a.614.614 0 0 0-.11-.874l-2.453-1.84a.611.611 0 0 0-.368-.122h-1.226a.614.614 0 0 0-.51.273l-.812 1.217-1.31-1.31a.612.612 0 0 0-.434-.18h-1.226a.613.613 0 0 0-.613.613v1.227h-1.398l-.473-1.42a.613.613 0 0 0-.582-.42h-2.452a.614.614 0 0 0-.51.273l-.717 1.074-.716-1.074a.614.614 0 0 0-.51-.273h-1.352a6.744 6.744 0 0 0-6.005-3.679c-3.208 0-5.896 2.254-6.574 5.26-2.996-1.432-5.076-4.483-5.076-8.019 0-3.468 2.002-6.47 4.905-7.935v4.563a3.07 3.07 0 0 0 3.066 3.066z" mask="url(&quot;#dbflb&quot;)"/><path fill-opacity=".16" d="M16.036 32.656c1.353 0 2.453-1.1 2.453-2.452 0-1.353-1.1-2.453-2.453-2.453a2.448 2.448 0 0 0-2.327 1.717 8.824 8.824 0 0 1-1.253-.285 5.524 5.524 0 0 1 5.42-4.497 5.52 5.52 0 0 1 5.056 3.31.613.613 0 0 0 .561.368h1.412l1.044 1.567c.228.341.793.341 1.02 0l1.045-1.567h1.682l.473 1.42c.084.251.318.42.582.42h2.453c.339 0 .613-.274.613-.613v-1.227h.36l1.659 1.66a.614.614 0 0 0 .944-.093l1.044-1.567h.694l1.782 1.338-1.872 2.341H23.493a.612.612 0 0 0-.561.368 5.52 5.52 0 0 1-5.056 3.311c-2.968 0-5.388-2.356-5.507-5.294.411.116.833.204 1.264.268a2.456 2.456 0 0 0 2.403 1.96zm-.92-3.065c-.044 0-.087-.006-.132-.007a1.223 1.223 0 0 1 1.052-.606 1.227 1.227 0 0 1 0 2.452c-.454 0-.848-.251-1.06-.62.048 0 .093.007.14.007h.92v-1.226zm.478-19.007a1.222 1.222 0 0 1 2.282.613 1.222 1.222 0 1 1-2.282.613h1.055v-1.226zm-3.236 1.67a8.837 8.837 0 0 1 1.939-.402 2.448 2.448 0 0 0 2.352 1.797c1.353 0 2.453-1.1 2.453-2.452 0-1.353-1.1-2.453-2.453-2.453-1.155 0-2.12.805-2.379 1.883-.657.054-1.296.174-1.912.35V5.065c0-1.014.825-1.84 1.839-1.84h24.525c1.014 0 1.84.826 1.84 1.84v12.262c0 1.014-.826 1.84-1.84 1.84H14.197a1.842 1.842 0 0 1-1.84-1.84zm1.839 8.14h24.525a3.07 3.07 0 0 0 3.066-3.066V5.066A3.07 3.07 0 0 0 38.722 2H14.197a3.07 3.07 0 0 0-3.066 3.066v6.339C7.53 12.955 5 16.537 5 20.7c0 4.168 2.534 7.753 6.142 9.3-.003.069-.01.135-.01.204a6.752 6.752 0 0 0 6.744 6.744 6.745 6.745 0 0 0 6.005-3.679h14.841a.614.614 0 0 0 .479-.23l2.452-3.065a.614.614 0 0 0-.11-.874l-2.453-1.84a.611.611 0 0 0-.368-.122h-1.226a.614.614 0 0 0-.51.273l-.812 1.217-1.31-1.31a.612.612 0 0 0-.434-.18h-1.226a.613.613 0 0 0-.613.613v1.227h-1.398l-.473-1.42a.613.613 0 0 0-.582-.42h-2.452a.614.614 0 0 0-.51.273l-.717 1.074-.716-1.074a.614.614 0 0 0-.51-.273h-1.352a6.744 6.744 0 0 0-6.005-3.679c-3.208 0-5.896 2.254-6.574 5.26-2.996-1.432-5.076-4.483-5.076-8.019 0-3.468 2.002-6.47 4.905-7.935v4.563a3.07 3.07 0 0 0 3.066 3.066z"/></g><path fill="#727272" d="M16.036 32.656c1.353 0 2.453-1.1 2.453-2.452 0-1.353-1.1-2.453-2.453-2.453a2.448 2.448 0 0 0-2.327 1.717 8.824 8.824 0 0 1-1.253-.285 5.524 5.524 0 0 1 5.42-4.497 5.52 5.52 0 0 1 5.056 3.31.613.613 0 0 0 .561.368h1.412l1.044 1.567c.228.341.793.341 1.02 0l1.045-1.567h1.682l.473 1.42c.084.251.318.42.582.42h2.453c.339 0 .613-.274.613-.613v-1.227h.36l1.659 1.66a.614.614 0 0 0 .944-.093l1.044-1.567h.694l1.782 1.338-1.872 2.341H23.493a.612.612 0 0 0-.561.368 5.52 5.52 0 0 1-5.056 3.311c-2.968 0-5.388-2.356-5.507-5.294.411.116.833.204 1.264.268a2.456 2.456 0 0 0 2.403 1.96zm-.92-3.065c-.044 0-.087-.006-.132-.007a1.223 1.223 0 0 1 1.052-.606 1.227 1.227 0 0 1 0 2.452c-.454 0-.848-.251-1.06-.62.048 0 .093.007.14.007h.92v-1.226zm.478-19.007a1.222 1.222 0 0 1 2.282.613 1.222 1.222 0 1 1-2.282.613h1.055v-1.226zm-3.236 1.67a8.837 8.837 0 0 1 1.939-.402 2.448 2.448 0 0 0 2.352 1.797c1.353 0 2.453-1.1 2.453-2.452 0-1.353-1.1-2.453-2.453-2.453-1.155 0-2.12.805-2.379 1.883-.657.054-1.296.174-1.912.35V5.065c0-1.014.825-1.84 1.839-1.84h24.525c1.014 0 1.84.826 1.84 1.84v12.262c0 1.014-.826 1.84-1.84 1.84H14.197a1.842 1.842 0 0 1-1.84-1.84zm1.839 8.14h24.525a3.07 3.07 0 0 0 3.066-3.066V5.066A3.07 3.07 0 0 0 38.722 2H14.197a3.07 3.07 0 0 0-3.066 3.066v6.339C7.53 12.955 5 16.537 5 20.7c0 4.168 2.534 7.753 6.142 9.3-.003.069-.01.135-.01.204a6.752 6.752 0 0 0 6.744 6.744 6.745 6.745 0 0 0 6.005-3.679h14.841a.614.614 0 0 0 .479-.23l2.452-3.065a.614.614 0 0 0-.11-.874l-2.453-1.84a.611.611 0 0 0-.368-.122h-1.226a.614.614 0 0 0-.51.273l-.812 1.217-1.31-1.31a.612.612 0 0 0-.434-.18h-1.226a.613.613 0 0 0-.613.613v1.227h-1.398l-.473-1.42a.613.613 0 0 0-.582-.42h-2.452a.614.614 0 0 0-.51.273l-.717 1.074-.716-1.074a.614.614 0 0 0-.51-.273h-1.352a6.744 6.744 0 0 0-6.005-3.679c-3.208 0-5.896 2.254-6.574 5.26-2.996-1.432-5.076-4.483-5.076-8.019 0-3.468 2.002-6.47 4.905-7.935v4.563a3.07 3.07 0 0 0 3.066 3.066z"/></g></g></svg>