<svg xmlns="http://www.w3.org/2000/svg" xmlns:xlink="http://www.w3.org/1999/xlink" width="107.508" height="144.125" viewBox="0 0 107.508 144.125">
  <defs>
    <filter id="Path_440" x="0" y="0" width="107.508" height="144.125" filterUnits="userSpaceOnUse">
      <feOffset dy="3" input="SourceAlpha"/>
      <feGaussianBlur stdDeviation="3" result="blur"/>
      <feFlood flood-opacity="0.161"/>
      <feComposite operator="in" in2="blur"/>
      <feComposite in="SourceGraphic"/>
    </filter>
  </defs>
  <g id="creation" transform="translate(9 6)">
    <g transform="matrix(1, 0, 0, 1, -9, -6)" filter="url(#Path_440)">
      <path id="Path_440-2" data-name="Path 440" d="M89.508,44.754A44.754,44.754,0,1,0,26.445,85.585v3.923H22.377v4.069h4.069v4.069H22.377v4.069h4.069v6.1a2.034,2.034,0,0,0,2.034,2.034h2.034v6.1a2.034,2.034,0,0,0,2.034,2.034h2.24a10.171,10.171,0,0,0,19.931,0h2.24a2.034,2.034,0,0,0,2.034-2.034v-6.1h2.034a2.034,2.034,0,0,0,2.034-2.034v-6.1h4.069V97.645H63.062V93.576h4.069V89.508H63.062V85.585A44.613,44.613,0,0,0,89.508,44.754Zm-44.754,77.3a6.1,6.1,0,0,1-5.728-4.069H50.48a6.09,6.09,0,0,1-5.726,4.069Zm10.171-8.137H34.583V109.85H54.925Zm4.069-8.137H30.514v-4.069h28.48Zm0-8.137H30.514V93.576h28.48ZM38.651,48.822H50.857V89.508H38.651Zm.97-4.069,5.132-12.832,5.132,12.832Zm15.3,44.754V46.788a2.065,2.065,0,0,0-.144-.757L46.644,25.689a2.037,2.037,0,0,0-3.78,0L34.727,46.031a2.065,2.065,0,0,0-.144.757v42.72H30.514v-5.26a2.031,2.031,0,0,0-1.258-1.879,40.689,40.689,0,1,1,30.995,0,2.038,2.038,0,0,0-1.257,1.882v5.26Zm0,0" transform="translate(9 6)" fill="#3b5998"/>
    </g>
    <path id="Path_441" data-name="Path 441" d="M68.617,36.069a32.587,32.587,0,0,1,32.548,32.548h4.069a36.617,36.617,0,1,0-73.234,0h4.069A32.587,32.587,0,0,1,68.617,36.069Zm0,0" transform="translate(-23.863 -23.863)" fill="#3b5998"/>
    <path id="Path_442" data-name="Path 442" d="M116.891,92.48h4.069A28.48,28.48,0,0,0,64,92.48h4.069a24.411,24.411,0,0,1,48.822,0Zm0,0" transform="translate(-47.726 -47.726)" fill="#3b5998"/>
  </g>
</svg>
