<svg xmlns="http://www.w3.org/2000/svg" xmlns:xlink="http://www.w3.org/1999/xlink" width="140.783" height="134.644" viewBox="0 0 140.783 134.644">
  <defs>
    <filter id="Path_11" x="0" y="0" width="140.783" height="134.644" filterUnits="userSpaceOnUse">
      <feOffset dy="3" input="SourceAlpha"/>
      <feGaussianBlur stdDeviation="3" result="blur"/>
      <feFlood flood-opacity="0.161"/>
      <feComposite operator="in" in2="blur"/>
      <feComposite in="SourceGraphic"/>
    </filter>
  </defs>
  <g id="key-card" transform="translate(9 6)">
    <g id="Group_66" data-name="Group 66" transform="translate(0 0)">
      <g id="Group_65" data-name="Group 65">
        <g transform="matrix(1, 0, 0, 1, -9, -6)" filter="url(#Path_11)">
          <path id="Path_11-2" data-name="Path 11" d="M30.7,73.391h81.855a10.244,10.244,0,0,0,10.232-10.232V22.232A10.244,10.244,0,0,0,112.551,12H30.7A10.243,10.243,0,0,0,20.464,22.232V43.389a33.752,33.752,0,0,0,.035,62.067c-.008.227-.035.448-.035.677a22.506,22.506,0,0,0,42.554,10.232h49.533a2.048,2.048,0,0,0,1.6-.767l8.186-10.232a2.048,2.048,0,0,0-.37-2.916l-8.186-6.139a2.041,2.041,0,0,0-1.228-.409h-4.093a2.049,2.049,0,0,0-1.7.911l-2.707,4.062L99.673,96.5a2.044,2.044,0,0,0-1.447-.6H94.133a2.044,2.044,0,0,0-2.046,2.046v4.093H87.423L85.843,97.3A2.046,2.046,0,0,0,83.9,95.9H75.716a2.049,2.049,0,0,0-1.7.911l-2.39,3.585-2.39-3.585a2.049,2.049,0,0,0-1.7-.911H63.018a22.495,22.495,0,0,0-41.986,5.274,29.609,29.609,0,0,1-.569-53.247V63.159A10.243,10.243,0,0,0,30.7,73.391ZM24.557,46.224a29.5,29.5,0,0,1,6.473-1.342,8.157,8.157,0,1,0-.088-4.089,33.385,33.385,0,0,0-6.385,1.166V22.232A6.147,6.147,0,0,1,30.7,16.093h81.855a6.147,6.147,0,0,1,6.139,6.139V63.159a6.147,6.147,0,0,1-6.139,6.139H30.7a6.147,6.147,0,0,1-6.139-6.139Zm10.8-5.574a4.093,4.093,0,1,1,0,4.093h3.524V40.649Zm-1.592,63.438c-.149,0-.293-.02-.442-.023a4.1,4.1,0,1,1-.025,4.091c.158,0,.309.025.467.025h3.07v-4.093Zm3.07,10.232a8.186,8.186,0,1,0-7.768-10.641,29.449,29.449,0,0,1-4.181-.952,18.406,18.406,0,0,1,34.962-3.96,2.048,2.048,0,0,0,1.874,1.228h4.713l3.485,5.229a2.123,2.123,0,0,0,3.405,0l3.485-5.229h5.615l1.58,4.739a2.046,2.046,0,0,0,1.942,1.4h8.186a2.044,2.044,0,0,0,2.046-2.046V99.994h1.2l5.54,5.54a2.047,2.047,0,0,0,3.149-.311l3.485-5.229h2.316l5.949,4.463-6.25,7.815H61.723a2.044,2.044,0,0,0-1.874,1.228,18.4,18.4,0,0,1-35.255-6.62,33.453,33.453,0,0,0,4.222.894A8.2,8.2,0,0,0,36.835,114.319Z" transform="translate(9 -6)" fill="#3b5998"/>
        </g>
      </g>
    </g>
    <g id="Group_68" data-name="Group 68" transform="translate(90.041 12.278)">
      <g id="Group_67" data-name="Group 67" transform="translate(0 0)">
        <path id="Path_12" data-name="Path 12" d="M370.417,60H354.046A2.045,2.045,0,0,0,352,62.046V94.788a2.045,2.045,0,0,0,2.046,2.046h16.371a2.045,2.045,0,0,0,2.047-2.046V62.046A2.045,2.045,0,0,0,370.417,60Zm-2.046,32.742H356.093V64.093h12.278Z" transform="translate(-352 -60)" fill="#3b5998"/>
      </g>
    </g>
  </g>
</svg>
