<svg id="sunset" xmlns="http://www.w3.org/2000/svg" width="126.12" height="126.127" viewBox="0 0 126.12 126.127">
  <path id="Path_19" data-name="Path 19" d="M329.4,292.175a21.02,21.02,0,1,0,21.02-21.019A21.02,21.02,0,0,0,329.4,292.175Zm21.02-16.816A16.816,16.816,0,1,1,333.6,292.175,16.815,16.815,0,0,1,350.418,275.359Zm0,0" transform="translate(-257.929 -212.292)" fill="#3b5998"/>
  <path id="Path_20" data-name="Path 20" d="M370.9,561.637h24.024v4.2H370.9Zm0,0" transform="translate(-290.42 -439.714)" fill="#3b5998"/>
  <path id="Path_21" data-name="Path 21" d="M329.4,522.9h42.04v4.2H329.4Zm0,0" transform="translate(-257.929 -409.387)" fill="#3b5998"/>
  <path id="Path_22" data-name="Path 22" d="M116.379,522.9h4.2v4.2h-4.2Zm0,0" transform="translate(-91.153 -409.387)" fill="#3b5998"/>
  <path id="Path_23" data-name="Path 23" d="M58.285,542.27h4.2v4.2h-4.2Zm0,0" transform="translate(-45.671 -424.551)" fill="#3b5998"/>
  <path id="Path_24" data-name="Path 24" d="M25.614,101.687A159.2,159.2,0,0,0,45.837,39.469L65.386,58.9a2.1,2.1,0,0,0,1.471.611,1.985,1.985,0,0,0,.34-.027,2.1,2.1,0,0,0,1.541-1.135,20.52,20.52,0,0,0-3.851-23.717l-1.719-1.72H77.953a2.1,2.1,0,0,0,2-2.768A20.523,20.523,0,0,0,60.454,16.1H57.722l10.5-10.558a2.1,2.1,0,0,0-.55-3.363A20.528,20.528,0,0,0,43.939,6.027L41.932,8.034a20.558,20.558,0,0,0-1.822,2.1,20.2,20.2,0,0,0-1.806-2.1L36.3,6.027A20.517,20.517,0,0,0,12.582,2.178a2.1,2.1,0,0,0-.55,3.363L22.541,16.1H19.782A20.522,20.522,0,0,0,.287,30.147a2.1,2.1,0,0,0,2,2.768h14.77l-1.719,1.72a20.522,20.522,0,0,0-3.852,23.717,2.1,2.1,0,0,0,1.541,1.135,2,2,0,0,0,.341.027,2.1,2.1,0,0,0,1.481-.611l18.2-18.1A113.928,113.928,0,0,1,11.073,96.356a78.429,78.429,0,0,0-8.58-1.749l-1.314-.132L.759,98.66l1.225.12c2.1.3,4.191.726,6.268,1.207-.421.527-.841,1.063-1.276,1.583l3.224,2.7A118.341,118.341,0,0,0,37.7,36.181l2.419-2.4,1.811,1.8A153.686,153.686,0,0,1,15.275,110.2l3.443,2.409c1.653-2.359,3.229-4.807,4.757-7.3a74.554,74.554,0,0,1,25.434,19.926l3.251-2.664A78.513,78.513,0,0,0,38.2,109.311h88.1v-4.2H31.973c-2.061-1.244-4.187-2.371-6.359-3.42ZM66.085,53.665,43.876,31.584A16.214,16.214,0,0,1,59.923,35.6l2.007,2.008a16.32,16.32,0,0,1,4.155,16.058Zm8.661-24.954h-17.4a20.5,20.5,0,0,0-13.02-1.554A16.3,16.3,0,0,1,57.609,20.3h2.837a16.321,16.321,0,0,1,14.3,8.408ZM44.9,11.006,46.905,9A16.332,16.332,0,0,1,62.972,4.843L50.512,17.377a20.5,20.5,0,0,0-9.923,7.788A15.91,15.91,0,0,1,44.9,11.006ZM33.318,9l2.007,2.007a15.953,15.953,0,0,1,2.418,3.184,20,20,0,0,0-1.606,6.987,20.5,20.5,0,0,0-6.411-3.8L17.263,4.843A16.325,16.325,0,0,1,33.324,9ZM19.775,20.3h2.838a16.3,16.3,0,0,1,13.3,6.852A20.508,20.508,0,0,0,22.9,28.711H5.49A16.322,16.322,0,0,1,19.782,20.3ZM14.15,53.665a16.32,16.32,0,0,1,4.156-16.058L20.313,35.6a16.066,16.066,0,0,1,11.4-4.691,16.625,16.625,0,0,1,4.658.668Zm0,0" transform="translate(-0.178 0)" fill="#3b5998"/>
</svg>
