<svg id="theater-masks" xmlns="http://www.w3.org/2000/svg" width="124.531" height="115.887" viewBox="0 0 124.531 115.887">
  <path id="Path_25" data-name="Path 25" d="M331.432,184.865A2.432,2.432,0,1,0,329,182.432,2.433,2.433,0,0,0,331.432,184.865Zm0,0" transform="translate(-248.979 -136.22)" fill="#3b5998"/>
  <path id="Path_26" data-name="Path 26" d="M65.432,44.865A2.432,2.432,0,1,0,63,42.432,2.433,2.433,0,0,0,65.432,44.865Zm0,0" transform="translate(-47.677 -30.271)" fill="#3b5998"/>
  <path id="Path_27" data-name="Path 27" d="M28.736,79.277l3.686,1.582a12.226,12.226,0,0,0,9.583,0l3.684-1.58a48.156,48.156,0,0,0,4.817-2.4C52.666,92.7,63.442,106.73,78.84,113.328l3.686,1.582a12.227,12.227,0,0,0,9.582,0l3.684-1.58c17.13-7.34,28.738-24.114,28.738-42.475V41.349a7.3,7.3,0,0,0-7.3-7.3H74.426V7.3a7.3,7.3,0,0,0-7.3-7.3H7.3A7.3,7.3,0,0,0,0,7.3V36.8c0,18.384,11.63,35.144,28.737,42.474Zm90.93-37.928V70.854c0,16.121-10.364,31.394-25.789,38l-3.684,1.581a7.34,7.34,0,0,1-5.75,0l-3.686-1.581C66.184,102.613,56.227,89,55.083,73.926a48.27,48.27,0,0,0,9.111-8.656,12.157,12.157,0,0,0,15.845-.206,2.432,2.432,0,1,0-3.219-3.647,7.3,7.3,0,0,1-9.653,0c-.035-.032-.073-.059-.11-.088A45.122,45.122,0,0,0,74.37,38.916h42.864a2.435,2.435,0,0,1,2.432,2.432ZM4.864,7.3A2.435,2.435,0,0,1,7.3,4.865H67.129A2.435,2.435,0,0,1,69.562,7.3V36.8c0,16.61-10.583,31.489-25.789,38l-3.684,1.581a7.34,7.34,0,0,1-5.75,0l-3.686-1.581C15.228,68.2,4.864,52.924,4.864,36.8Zm0,0" transform="translate(0.001 0)" fill="#3b5998"/>
  <path id="Path_28" data-name="Path 28" d="M114.619,180H85.432A2.432,2.432,0,0,0,83,182.432a17.026,17.026,0,0,0,34.052,0A2.432,2.432,0,0,0,114.619,180Zm-14.594,14.593a12.185,12.185,0,0,1-11.917-9.732h23.834A12.186,12.186,0,0,1,100.026,194.593Zm0,0" transform="translate(-62.812 -136.22)" fill="#3b5998"/>
  <path id="Path_29" data-name="Path 29" d="M65.41,104.864a7.29,7.29,0,0,1,4.827,1.824,2.432,2.432,0,0,0,3.219-3.647,12.161,12.161,0,0,0-16.09,0,2.432,2.432,0,0,0,3.218,3.647,7.289,7.289,0,0,1,4.827-1.824Zm0,0" transform="translate(-42.79 -75.678)" fill="#3b5998"/>
  <path id="Path_30" data-name="Path 30" d="M177.363,103.04a2.432,2.432,0,1,0,3.218,3.647,7.3,7.3,0,0,1,9.653,0,2.432,2.432,0,1,0,3.219-3.647,12.164,12.164,0,0,0-16.09,0Zm0,0" transform="translate(-133.601 -75.678)" fill="#3b5998"/>
  <path id="Path_31" data-name="Path 31" d="M105.432,44.865h29.187a2.432,2.432,0,0,0,0-4.865H105.432a2.432,2.432,0,1,0,0,4.865Zm0,0" transform="translate(-77.948 -30.271)" fill="#3b5998"/>
  <path id="Path_32" data-name="Path 32" d="M289,337.026a2.432,2.432,0,0,0,2.432,2.432h29.187a2.432,2.432,0,0,0,2.432-2.432,17.026,17.026,0,1,0-34.051,0Zm17.026-12.161a12.183,12.183,0,0,1,11.917,9.729H294.109A12.183,12.183,0,0,1,306.026,324.864Zm0,0" transform="translate(-218.708 -242.168)" fill="#3b5998"/>
  <path id="Path_33" data-name="Path 33" d="M396.234,250.608a7.3,7.3,0,0,1-9.653,0,2.432,2.432,0,1,0-3.218,3.647,12.16,12.16,0,0,0,16.089,0,2.432,2.432,0,1,0-3.218-3.647Zm0,0" transform="translate(-289.496 -189.193)" fill="#3b5998"/>
  <path id="Path_34" data-name="Path 34" d="M371.432,184.865h14.594a2.432,2.432,0,1,0,0-4.865H371.432a2.432,2.432,0,0,0,0,4.865Zm0,0" transform="translate(-279.25 -136.22)" fill="#3b5998"/>
</svg>
