<svg xmlns="http://www.w3.org/2000/svg" width="134.544" height="134.544" viewBox="0 0 134.544 134.544">
  <path id="Union_3" data-name="Union 3" d="M23.871,134.544V130.2h43.4v4.34Zm21.7-8.68v-4.34h43.4v4.34Zm21.7-8.681v-4.34h43.4v4.34Zm62.932-21.7v-4.34h4.34v4.34ZM0,95.483v-4.34H4.34v4.34Zm8.681,0v-4.34H24.767a15.267,15.267,0,0,1-5.92-6.51H0V80.945A24.526,24.526,0,0,1,24.524,56.421a40.259,40.259,0,0,0,21.638-6.3l3.563-2.268a42.348,42.348,0,0,1,46.235.492,49.265,49.265,0,0,0,18.73,7.472l.979-.952,7.126-7.124h9.579v4.34h-7.781l-4.6,4.579,5.356.824a10.788,10.788,0,0,1,9.2,10.724V84.632H115.7a15.261,15.261,0,0,1-5.92,6.51h16.088v4.34Zm31.655-4.34H94.209a15.261,15.261,0,0,1-5.92-6.51H46.255A15.265,15.265,0,0,1,40.335,91.142Zm50.808-13.02a10.85,10.85,0,1,0,10.85-10.85A10.862,10.862,0,0,0,91.143,78.122Zm-69.442,0a10.85,10.85,0,1,0,10.85-10.85A10.862,10.862,0,0,0,21.7,78.122Zm95.483,0a15.286,15.286,0,0,1-.174,2.17H130.2v-4.34h-4.34v-4.34h4.34V69.441h-4.34V65.1h3.543a6.465,6.465,0,0,0-4.722-3.326l-9.679-1.491a53.648,53.648,0,0,1-21.453-8.329,38.018,38.018,0,0,0-41.5-.44l-3.566,2.267a44.562,44.562,0,0,1-23.963,6.979A20.182,20.182,0,0,0,4.351,80.292H17.534a15.191,15.191,0,1,1,30.034,0H86.976a15.182,15.182,0,1,1,30.208-2.17Zm-21.7,0a6.51,6.51,0,1,1,6.51,6.511A6.517,6.517,0,0,1,95.483,78.122Zm4.34,0a2.17,2.17,0,1,0,2.17-2.17A2.173,2.173,0,0,0,99.823,78.122Zm-73.782,0a6.51,6.51,0,1,1,6.511,6.511A6.518,6.518,0,0,1,26.041,78.122Zm4.34,0a2.17,2.17,0,1,0,2.171-2.17A2.173,2.173,0,0,0,30.38,78.122Zm20.36-10.85-3.689-7.378,1.786-1.017a7.957,7.957,0,0,0,.9-.643c.363-.283.725-.56,1.085-.787l3.565-2.271a33.633,33.633,0,0,1,18.081-5.264c5.994,0,13.429,2.571,19.883,6.875l1.805,1.2-6.189,9.281Zm5.972-8.435-3.564,2.27c-.156.1-.312.213-.471.335l.744,1.49H85.641L88.1,59.245c-4.388-2.585-10.332-4.994-15.636-4.994A29.29,29.29,0,0,0,56.713,58.837ZM45.572,21.7v-4.34h43.4V21.7Zm21.7-8.681V8.681h43.4v4.34Zm21.7-8.681V0h43.4V4.34Z" fill="#3b5998"/>
</svg>
